<svg xmlns="http://www.w3.org/2000/svg" width="140.639" height="140.639" viewBox="0 0 140.639 140.639">
    <defs>
        <style>
            .cls-1{fill:#8abbd5;stroke:#8abbd5;stroke-miterlimit:10}
        </style>
    </defs>
    <g id="Group_2711" data-name="Group 2711" transform="translate(.5 .5)">
        <path id="Rectangle_1506" d="M0 0h18.018v4.504H0z" class="cls-1" data-name="Rectangle 1506" transform="translate(101.351 126.126)"/>
        <path id="Path_1090" d="M502.688 426.8v-15.768H492.2l-6.762 15.768h-8.386l6.758-13.512h-11.085l-9.618 6.41a49.538 49.538 0 1 0-73.83 59.339l-7.033 17.583h10.082v31.531h103.6v-31.533h10.084l-10.81-27.026h-39.913a49.034 49.034 0 0 0 9.788-19.165l5.435 3.4h11.048l-4.506-9.009h6.139a32.774 32.774 0 0 0 23.341-9.67l.66-.66V426.8zm-7.526-11.263h3.022V426.8h-7.845zm-21.07 2.254h2.429l-4.5 9.009h-11.444zM396.1 474.1h44.7l-7.2 18.013h-44.7zm.728 22.522h39.813l7.484-18.712v45.739h-47.3zm94.593 27.027h-42.787v-45.743l7.484 18.712h35.308zm7.937-31.531h-40.19L451.96 474.1h40.2zM456.1 460.581h-7.462v4.506h4.511a45.615 45.615 0 0 1-3.908 4.506h-56.185l-2.069 5.171a44.743 44.743 0 0 1-18.41-29.947h3.984v-4.5h-4.433c-.038-.748-.071-1.5-.071-2.254a44.707 44.707 0 0 1 4.873-20.269h17.65a2.252 2.252 0 1 1 0 4.5h-9.009a6.757 6.757 0 1 0 0 13.513h15.766v-4.5h-15.766a2.252 2.252 0 1 1 0-4.5h9.009a6.756 6.756 0 1 0 0-13.512h-15.058a44.971 44.971 0 0 1 57.2-15.767h-26.376a6.757 6.757 0 1 0 0 13.513h15.764a2.252 2.252 0 1 1 0 4.5h-6.755v4.506h6.755a6.757 6.757 0 1 0 0-13.513h-15.764a2.252 2.252 0 1 1 0-4.5h33.784a44.9 44.9 0 0 1 15.132 20.236l-6.8 4.539H449.7a35.545 35.545 0 0 0-15.822 3.734 5.9 5.9 0 0 0 0 10.549 35.546 35.546 0 0 0 15.822 3.735h6.4l4.941 3.089a44.564 44.564 0 0 1-4.941 12.665zm15.707-11.26l-14.414-9.009h12.376l4.5 9.009zm30.881-16.721a28.312 28.312 0 0 1-19.5 7.71H474.8l-2.254-4.5h-21.66v4.5H449.7a30.978 30.978 0 0 1-13.8-3.26 1.389 1.389 0 0 1 0-2.489 30.981 30.981 0 0 1 13.8-3.261h52.991z" class="cls-1" data-name="Path 1090" transform="translate(-367.553 -388.51)"/>
        <path id="Path_1091" d="M398.376 446.186a2.255 2.255 0 0 1 2.254-2.254h15.764a6.757 6.757 0 1 0 0-13.513h-4.5a2.253 2.253 0 0 1 0-4.506h4.5v-4.5h-4.5a6.757 6.757 0 0 0 0 13.513h4.5a2.252 2.252 0 1 1 0 4.5H400.63a6.757 6.757 0 0 0 0 13.515h24.77v-4.506h-24.77a2.254 2.254 0 0 1-2.254-2.249z" class="cls-1" data-name="Path 1091" transform="translate(-357.837 -376.365)"/>
        <path id="Path_1092" d="M388.683 426.345h-11.261v4.5h11.261a2.252 2.252 0 1 1 0 4.5h-4.5a6.757 6.757 0 1 0 0 13.514h6.757v-4.5h-6.76a2.253 2.253 0 0 1 0-4.506h4.5a6.757 6.757 0 1 0 0-13.513z" class="cls-1" data-name="Path 1092" transform="translate(-363.91 -374.543)"/>
    </g>
</svg>
