<svg xmlns="http://www.w3.org/2000/svg" width="99.521" height="139.687" viewBox="0 0 99.521 139.687">
    <defs>
        <style>
            .cls-1{fill:#8abbd5}
        </style>
    </defs>
    <path id="Path_1093" d="M726.168 427a16.03 16.03 0 0 0-12.847-5.677h-1.291v-20.377a12.441 12.441 0 0 0-22.642-7.117 12.44 12.44 0 0 0-20.369 9.488 12.441 12.441 0 0 0-18.056 9.789 12.443 12.443 0 0 0-18.186 11.041v45.412c0 .919.151 22.683 12.912 37.9a14.727 14.727 0 0 1 3.453 9.449v7.9a3.39 3.39 0 0 0 6.78 0v-7.918a21.515 21.515 0 0 0-5.041-13.8c-11.154-13.3-11.326-33.347-11.326-33.551v-14.168a12.405 12.405 0 0 0 12.732-.817 12.437 12.437 0 0 0 18.949 3.958 12.4 12.4 0 0 0 12.539 5.175A31.842 31.842 0 0 0 672.5 481.4a3.389 3.389 0 0 0 2.673 3.979 3.336 3.336 0 0 0 .657.064 3.386 3.386 0 0 0 3.32-2.736c.029-.142 2.957-14.254 17.209-17.487a3.391 3.391 0 0 0-1.5-6.613 31.2 31.2 0 0 0-4.236 1.286 12.391 12.391 0 0 0 3.308-8.439v-4.034l11.283 2.41-1.654 6.345a3.389 3.389 0 0 0 6.561 1.7l2.495-9.6c.016-.067.029-.134.04-.2a.643.643 0 0 1 .027-.1 3.391 3.391 0 0 0-2.606-4.024l-18.844-4.021h-.03l-1.867-.4a9.962 9.962 0 0 1-7.625-9.828 1.51 1.51 0 0 1 1.409-1.594h30.208a9.412 9.412 0 0 1 7.669 3.275c3.016 3.568 4.548 10.166 4.554 19.623 0 7.715-.971 17.076-3.076 29.453-1.918 11.306-9.31 21.351-13.556 26.333a15.477 15.477 0 0 0-3.669 10.007v8.023a3.388 3.388 0 1 0 6.776 0v-8.016a8.693 8.693 0 0 1 2.059-5.615c4.685-5.515 12.878-16.687 15.063-29.59 4.999-29.409 4.081-46.246-2.98-54.601zm-32.254-26.055a5.669 5.669 0 1 1 11.338-.007v20.385h-11.336v-20.377zm-48.686 49.022a5.677 5.677 0 0 1-5.67-5.67V424.12a5.674 5.674 0 0 1 11.345 0v20.18a5.678 5.678 0 0 1-5.675 5.668zm18.123 4.578a5.673 5.673 0 0 1-5.671-5.653v-34.526a5.67 5.67 0 0 1 11.339 0v34.527a5.676 5.676 0 0 1-5.668 5.654zm23.785-8.594v5.5a5.669 5.669 0 1 1-11.338.007v-16.385a16.606 16.606 0 0 0 11.338 10.88zm-11.338-20v-22.532a5.669 5.669 0 0 1 11.338 0v17.915h-4.008a8.173 8.173 0 0 0-7.33 4.614z" class="cls-1" data-name="Path 1093" transform="translate(-632.777 -388.51)"/>
</svg>
