<svg xmlns="http://www.w3.org/2000/svg" width="469" height="523.024" viewBox="0 0 469 523.024">
    <defs>
        <style>
            .cls-1{fill:#75aecd}.cls-2{fill:#f6d58f}.cls-3{fill:#464545}.cls-4{fill:#fff7e6}.cls-5{fill:#1c1c1c}.cls-6{fill:#fbb200}
        </style>
    </defs>
    <g id="Group_1106" data-name="Group 1106" transform="translate(-53.853 -123.956)">
        <g id="Group_621" data-name="Group 621" transform="translate(53.853 177.614)">
            <path id="Path_659" d="M53.853 412.428c0-130.738 105.372-234.814 234.17-234.814a234.308 234.308 0 0 1 234.83 234.814c0 130.1-105.387 234.184-234.83 234.184-128.798-.001-234.17-104.084-234.17-234.184zm366.215 0c0-77.4-57.237-135.936-132.045-135.936-74.162 0-131.4 58.534-131.4 135.936 0 76.131 57.243 135.315 131.4 135.315 74.808 0 132.045-59.184 132.045-135.315z" class="cls-1" data-name="Path 659" transform="translate(-53.853 -177.614)"/>
            <path id="Path_660" d="M216.521 276.908c64.071 4.442 113.312 52.388 121.158 117.265H440.9a234.24 234.24 0 0 0-224.38-216.306z" class="cls-1" data-name="Path 660" transform="translate(27.511 -177.487)"/>
        </g>
        <g id="Group_1338" data-name="Group 1338" transform="translate(-495.637 -35.782)">
            <g id="Group_1340" data-name="Group 1340">
                <g id="New_Symbol_18" data-name="New Symbol 18" transform="translate(691.836 639.217)">
                    <g id="Group_1135" data-name="Group 1135" transform="translate(2.752)">
                        <g id="Group_1134" data-name="Group 1134">
                            <g id="Group_1133" data-name="Group 1133">
                                <g id="Group_1132" data-name="Group 1132">
                                    <g id="Group_1131" data-name="Group 1131">
                                        <g id="Group_1130" data-name="Group 1130">
                                            <g id="Group_1129" data-name="Group 1129">
                                                <g id="Group_1128" data-name="Group 1128">
                                                    <g id="Group_1127" data-name="Group 1127">
                                                        <g id="Group_1126" data-name="Group 1126">
                                                            <g id="Group_1125" data-name="Group 1125">
                                                                <g id="Group_1124" data-name="Group 1124">
                                                                    <path id="Path_820" d="M685.818 492.7h40.263c.028-1.481.055-3.143.06-4.829 0-1.932 0-3.868-.045-5.57l.045-33.146h-24.947l2.8 24.185c-.025.108-8.381 6.617-13.761 10.794a11.5 11.5 0 0 0-4.412 8.567z" class="cls-2" data-name="Path 820" transform="translate(-685.818 -449.151)"/>
                                                                </g>
                                                            </g>
                                                        </g>
                                                    </g>
                                                </g>
                                            </g>
                                        </g>
                                    </g>
                                </g>
                            </g>
                        </g>
                    </g>
                    <g id="Group_1147" data-name="Group 1147" transform="translate(0 36.504)">
                        <g id="Group_1146" data-name="Group 1146">
                            <g id="Group_1145" data-name="Group 1145">
                                <g id="Group_1144" data-name="Group 1144">
                                    <g id="Group_1143" data-name="Group 1143">
                                        <g id="Group_1142" data-name="Group 1142">
                                            <g id="Group_1141" data-name="Group 1141">
                                                <g id="Group_1140" data-name="Group 1140">
                                                    <g id="Group_1139" data-name="Group 1139">
                                                        <g id="Group_1138" data-name="Group 1138">
                                                            <g id="Group_1137" data-name="Group 1137">
                                                                <g id="Group_1136" data-name="Group 1136">
                                                                    <path id="Path_821" d="M684.157 478.226h43.315c.028-2.159.056-4.586.068-7.041h-35.987a7.345 7.345 0 0 0-7.392 6.963z" class="cls-3" data-name="Path 821" transform="translate(-684.157 -471.185)"/>
                                                                </g>
                                                            </g>
                                                        </g>
                                                    </g>
                                                </g>
                                            </g>
                                        </g>
                                    </g>
                                </g>
                            </g>
                        </g>
                    </g>
                </g>
                <g id="New_Symbol_18-2" data-name="New Symbol 18" transform="translate(810.458 639.217)">
                    <g id="Group_1159" data-name="Group 1159">
                        <g id="Group_1158" data-name="Group 1158">
                            <g id="Group_1157" data-name="Group 1157">
                                <g id="Group_1156" data-name="Group 1156">
                                    <g id="Group_1155" data-name="Group 1155">
                                        <g id="Group_1154" data-name="Group 1154">
                                            <g id="Group_1153" data-name="Group 1153">
                                                <g id="Group_1152" data-name="Group 1152">
                                                    <g id="Group_1151" data-name="Group 1151">
                                                        <g id="Group_1150" data-name="Group 1150">
                                                            <g id="Group_1149" data-name="Group 1149">
                                                                <g id="Group_1148" data-name="Group 1148">
                                                                    <path id="Path_822" d="M806.06 492.7h-40.267a446.953 446.953 0 0 1-.056-4.829c0-1.932.008-3.868.046-5.57l-10.026-33.146H780.7l7.182 24.185c.03.108 8.385 6.617 13.764 10.794a11.484 11.484 0 0 1 4.412 8.567z" class="cls-2" data-name="Path 822" transform="translate(-755.757 -449.151)"/>
                                                                </g>
                                                            </g>
                                                        </g>
                                                    </g>
                                                </g>
                                            </g>
                                        </g>
                                    </g>
                                </g>
                            </g>
                        </g>
                    </g>
                    <g id="Group_1171" data-name="Group 1171" transform="translate(9.677 36.504)">
                        <g id="Group_1170" data-name="Group 1170">
                            <g id="Group_1169" data-name="Group 1169">
                                <g id="Group_1168" data-name="Group 1168">
                                    <g id="Group_1167" data-name="Group 1167">
                                        <g id="Group_1166" data-name="Group 1166">
                                            <g id="Group_1165" data-name="Group 1165">
                                                <g id="Group_1164" data-name="Group 1164">
                                                    <g id="Group_1163" data-name="Group 1163">
                                                        <g id="Group_1162" data-name="Group 1162">
                                                            <g id="Group_1161" data-name="Group 1161">
                                                                <g id="Group_1160" data-name="Group 1160">
                                                                    <path id="Path_823" d="M804.973 478.226h-43.31a555.32 555.32 0 0 1-.065-7.041h35.983a7.343 7.343 0 0 1 7.392 6.963z" class="cls-3" data-name="Path 823" transform="translate(-761.598 -471.185)"/>
                                                                </g>
                                                            </g>
                                                        </g>
                                                    </g>
                                                </g>
                                            </g>
                                        </g>
                                    </g>
                                </g>
                            </g>
                        </g>
                    </g>
                </g>
                <g id="Group_1339" data-name="Group 1339" transform="translate(697.251 345.262)">
                    <g id="Group_1183" data-name="Group 1183">
                        <g id="Group_1182" data-name="Group 1182">
                            <g id="Group_1181" data-name="Group 1181">
                                <g id="Group_1180" data-name="Group 1180">
                                    <g id="Group_1179" data-name="Group 1179">
                                        <g id="Group_1178" data-name="Group 1178">
                                            <g id="Group_1177" data-name="Group 1177">
                                                <g id="Group_1176" data-name="Group 1176">
                                                    <g id="Group_1175" data-name="Group 1175">
                                                        <g id="Group_1174" data-name="Group 1174">
                                                            <g id="Group_1173" data-name="Group 1173">
                                                                <g id="Group_1172" data-name="Group 1172">
                                                                    <path id="Path_824" d="M841.668 572.84c-.891 3.39-3.222 6.286-8.019 8.516-11.466 5.34-25.978 6.277-38.305 4.571-2.77-.386-5.646-.969-7.826-2.73-3.536-2.854-4.331-7.884-4.877-12.427l-13.249-111.468-6.627-55.742c-1.7-14.278-6.723-29.747-7.3-43.68 1.562 37.906-1.638 76.61-3.954 114.434-1.224 19.844-2.654 39.677-4.177 59.495-1.151 14.9-.633 33.025-5.8 47.134-4.539 12.415-27.855 8.738-38.423 7.3-4.221-.578-8.681-1.551-11.687-4.569-4.144-4.173-4.211-10.785-3.88-16.658 2.124-37.343 5.843-74.313 8.806-111.715 3.055-38.479 8.037-77.306 10.355-115.557 1.851-30.5 21.746-58.693 51.92-67.27 2.346-.669 4.942-1.193 7.162-.2 1.841.828 2.894 2.707 4.21 4.241 1.751 2.049 3.414 4.1 5.018 6.168a153.44 153.44 0 0 1 13.111 19.957c25.874 46.923 21.834 97.884 31.749 148.871q9.409 48.41 18.055 96.967c1.66 9.181 5.47 17.722 3.738 24.362z" class="cls-3" data-name="Path 824" transform="translate(-687.425 -271.721)"/>
                                                                </g>
                                                            </g>
                                                        </g>
                                                    </g>
                                                </g>
                                            </g>
                                        </g>
                                    </g>
                                </g>
                            </g>
                        </g>
                    </g>
                </g>
            </g>
            <path id="Path_818" d="M764.366 291.484L727.274 263.7a63.326 63.326 0 0 1-22.949-33.181c-2.78-9.7-8.368-20.215-12.046-30.764-2.311-6.63-3.878-13.275-3.491-19.713a18.945 18.945 0 0 1 2.289-8.04 2.869 2.869 0 0 0 .376-.888.9.9 0 0 0-.3-.853c-.729-.515-4.22 4.977-4.22 5.59-.055-.141-.126-.295-.167-.436a4.019 4.019 0 0 0-2.979 1.354 7.751 7.751 0 0 0-1.824 5.374l-.671.05a8.366 8.366 0 0 1 2-5.885 4.693 4.693 0 0 1 3.217-1.537v-.018c-1.471-3.668-2.737-6.972-3.463-9.38-.429-1.383-.944-4.433-2.223-5.316a2 2 0 0 0-.774-.315.416.416 0 0 0-.469.484c.772 3.62 1.655 7.256 2.623 10.805a.4.4 0 0 1-.285.489.471.471 0 0 1-.3-.03.357.357 0 0 1-.187-.245 208.26 208.26 0 0 1-2.565-10.573.9.9 0 0 0-1.155-.671.925.925 0 0 0-.645 1.07c.144.64.287 1.312.429 1.975a46.374 46.374 0 0 0 2.177 8.169.4.4 0 0 1-.184.529.376.376 0 0 1-.354-.015.37.37 0 0 1-.171-.184 45.3 45.3 0 0 1-2.24-8.323c-.113-.515-.212-1-.313-1.483a.909.909 0 0 0-1.337-.6.053.053 0 0 0-.031.015.89.89 0 0 0-.441.984c.116.567.23 1.127.341 1.69.616 2.954 1.186 5.751 1.9 8.085a.4.4 0 0 1-.275.49.338.338 0 0 1-.3-.031.367.367 0 0 1-.182-.23c-.729-2.379-1.3-5.189-1.912-8.153-.1-.5-.2-1-.3-1.513a.254.254 0 0 0-.427-.111 3.256 3.256 0 0 0-.328.456c-.311.509 0 0-.6 1.7-.257.722.341 6.118 1.494 11.657.928 4.453 1.769 8.913 2.611 13.375-.171 1.957-.114 3.988-.129 5.519a128.285 128.285 0 0 0 .7 13.156 193.353 193.353 0 0 0 4.646 27.881 128.294 128.294 0 0 0 11.392 30.691c5.972 11.274 34.544 36.98 55.07 51.592 7.382 5.258 16.536 4.516 21.256-1.7l.24-.311c5.445-7.147 2.922-18.635-5.432-24.897z" class="cls-2" data-name="Path 818"/>
            <g id="Group_1123" data-name="Group 1123" transform="translate(676.452 198.866)">
                <g id="Group_1122" data-name="Group 1122">
                    <g id="Group_1121" data-name="Group 1121">
                        <path id="Path_819" d="M771.634 289.407a21.37 21.37 0 0 0-8.424-14l-37.088-27.783a63.006 63.006 0 0 1-22.694-32.81 150.642 150.642 0 0 0-6.519-17.034c-1.932-4.5-3.93-9.157-5.537-13.767l-.234-.654-.659.21a40.314 40.314 0 0 0-15.35 8.623l-.259.24.035.355a192.73 192.73 0 0 0 4.665 27.972 128.494 128.494 0 0 0 11.453 30.863c5.981 11.289 34.627 37.134 55.282 51.836a18.773 18.773 0 0 0 10.833 3.643 14.042 14.042 0 0 0 11.4-5.485l.245-.313a15.834 15.834 0 0 0 2.851-11.896z" class="cls-4" data-name="Path 819" transform="translate(-674.871 -183.356)"/>
                    </g>
                </g>
            </g>
            <g id="Group_1189" data-name="Group 1189" transform="translate(742.514 356.037)">
                <g id="Group_1188" data-name="Group 1188">
                    <g id="Group_1187" data-name="Group 1187">
                        <g id="Group_1186" data-name="Group 1186">
                            <g id="Group_1185" data-name="Group 1185">
                                <path id="Path_825" d="M767.733 298.128a3.714 3.714 0 0 1-.737 2.081c-2.54 3.093-15.391 2.039-18.912 1.357-21.846-4.256-33.338-12.874-33.338-12.874s34.723-12.1 42.326-10.28c3.895.937 11.188 13.748 10.661 19.716z" class="cls-5" data-name="Path 825" transform="translate(-714.746 -278.224)"/>
                            </g>
                        </g>
                    </g>
                </g>
            </g>
            <g id="Group_1195" data-name="Group 1195" transform="translate(748.492 263.206)">
                <g id="Group_1194" data-name="Group 1194">
                    <g id="Group_1193" data-name="Group 1193">
                        <g id="Group_1192" data-name="Group 1192">
                            <g id="Group_1191" data-name="Group 1191">
                                <g id="Group_1190" data-name="Group 1190">
                                    <path id="Path_826" d="M736.87 222.923a25.877 25.877 0 0 1-10.481 11.592c-2.117 1.233-4.458 2.2-6.168 3.953s-2.576 4.67-1.153 6.667c2.194 3.065 7.2 1.412 10.557 3.113 1.049.533 1.909 1.383 2.961 1.912 2.759 1.372 6.246.119 8.367-2.116s3.181-5.245 4.188-8.159c1.74-5.025 3.309-11.143-.132-15.207-3.13-3.7-9.911-3.183-12.444.949z" class="cls-5" data-name="Path 826" transform="translate(-718.354 -222.191)"/>
                                </g>
                            </g>
                        </g>
                    </g>
                </g>
            </g>
            <g id="Group_1201" data-name="Group 1201" transform="translate(782.507 252.136)">
                <g id="Group_1200" data-name="Group 1200">
                    <g id="Group_1199" data-name="Group 1199">
                        <g id="Group_1198" data-name="Group 1198">
                            <g id="Group_1197" data-name="Group 1197">
                                <g id="Group_1196" data-name="Group 1196">
                                    <path id="Path_827" d="M755.213 239.133a16.79 16.79 0 0 0 1.635 1.431c6.763 5.379 14.379 9.722 20.558 15.764s10.911 14.447 9.746 23.015c-4.1 30.088-42.4 2.013-42.808-16.7-.056-2.545.336-5.176-.5-7.58-1.016-2.921-3.685-5.056-4.6-8.005-1.536-4.965 2.336-10.071 2.049-15.25-.3-5.335-3.492-20.282 6.677-15.3 7.432 3.637 3.55 15.26 5.908 20.721a6.335 6.335 0 0 0 1.335 1.904z" class="cls-5" data-name="Path 827" transform="translate(-738.886 -215.51)"/>
                                </g>
                            </g>
                        </g>
                    </g>
                </g>
            </g>
            <g id="Group_1214" data-name="Group 1214" transform="translate(742.419 292.291)">
                <g id="Group_1213" data-name="Group 1213">
                    <g id="Group_1212" data-name="Group 1212">
                        <g id="Group_1211" data-name="Group 1211">
                            <g id="Group_1210" data-name="Group 1210">
                                <g id="Group_1209" data-name="Group 1209">
                                    <g id="Group_1208" data-name="Group 1208">
                                        <g id="Group_1207" data-name="Group 1207">
                                            <g id="Group_1206" data-name="Group 1206">
                                                <g id="Group_1205" data-name="Group 1205">
                                                    <g id="Group_1204" data-name="Group 1204">
                                                        <g id="Group_1203" data-name="Group 1203">
                                                            <g id="Group_1202" data-name="Group 1202">
                                                                <path id="Path_828" d="M728.213 269.012c-5.21-1.877-10.277-5.055-12.71-10.01-.906-1.842-1.309-4.3.149-5.746 3.146-3.1 10.406-1.745 14.37-3.582 4.18-1.937 6.312-7.7 9.506-9.087 7.964-3.474 12.846 4.73 20.113 8.154 3.769 1.776 10.328 1.4 10.87 6.208.477 4.172-7.185 9.281-10.186 11.113-9.441 5.748-21.774 6.672-32.112 2.95z" class="cls-6" data-name="Path 828" transform="translate(-714.688 -239.747)"/>
                                                            </g>
                                                        </g>
                                                    </g>
                                                </g>
                                            </g>
                                        </g>
                                    </g>
                                </g>
                            </g>
                        </g>
                    </g>
                </g>
            </g>
            <g id="Group_1219" data-name="Group 1219" transform="translate(731.207 285.038)">
                <g id="Group_1218" data-name="Group 1218">
                    <g id="Group_1217" data-name="Group 1217">
                        <g id="Group_1216" data-name="Group 1216">
                            <g id="Group_1215" data-name="Group 1215">
                                <path id="Path_829" d="M787.144 251.336c-4.175-5.555-11.968-7.83-20.532-10.833-3.194-1.118-6.5-1.557-9.728-2.48-2.159-.615-4.15-2.028-6.334-2.462-5.946-1.183-12.308 3.365-16.942 6.5-8.025 5.431-19.631 11.425-21.859 21.808-1.445 6.738 2.543 13.246 1.682 20.108-1.963 15.515-14.675 24.132 6.856 32.457 13.633 5.268 28.714 4.821 43.323 4.3 14.081-.51 19.288-2.268 21.113-15.78 1.905-14.079 5.659-28.585 5.623-42.823-.016-4.666-1.187-8.116-3.202-10.795z" class="cls-4" data-name="Path 829" transform="translate(-707.921 -235.369)"/>
                            </g>
                        </g>
                    </g>
                </g>
            </g>
            <g id="Group_1231" data-name="Group 1231" transform="translate(771.832 269.482)">
                <g id="Group_1230" data-name="Group 1230">
                    <g id="Group_1229" data-name="Group 1229">
                        <g id="Group_1228" data-name="Group 1228">
                            <g id="Group_1227" data-name="Group 1227">
                                <g id="Group_1226" data-name="Group 1226">
                                    <g id="Group_1225" data-name="Group 1225">
                                        <g id="Group_1224" data-name="Group 1224">
                                            <g id="Group_1223" data-name="Group 1223">
                                                <g id="Group_1222" data-name="Group 1222">
                                                    <g id="Group_1221" data-name="Group 1221">
                                                        <g id="Group_1220" data-name="Group 1220">
                                                            <path id="Path_830" d="M732.442 253.4l.574-27.417 9.741.932 4.331.126 1.987 19.256-.163.246z" class="cls-2" data-name="Path 830" transform="translate(-732.442 -225.979)"/>
                                                        </g>
                                                    </g>
                                                </g>
                                            </g>
                                        </g>
                                    </g>
                                </g>
                            </g>
                        </g>
                    </g>
                </g>
            </g>
            <g id="Group_1243" data-name="Group 1243" transform="translate(763.266 248.185)">
                <g id="Group_1242" data-name="Group 1242">
                    <g id="Group_1241" data-name="Group 1241">
                        <g id="Group_1240" data-name="Group 1240">
                            <g id="Group_1239" data-name="Group 1239">
                                <g id="Group_1238" data-name="Group 1238">
                                    <g id="Group_1237" data-name="Group 1237">
                                        <g id="Group_1236" data-name="Group 1236">
                                            <g id="Group_1235" data-name="Group 1235">
                                                <g id="Group_1234" data-name="Group 1234">
                                                    <g id="Group_1233" data-name="Group 1233">
                                                        <g id="Group_1232" data-name="Group 1232">
                                                            <path id="Path_831" d="M731.286 215.731c-.464.835-2.283 8.769-2.591 9.632-2.286 6.508-2.266 14.687 3.423 17.871 3.3 1.846 8.216.3 11.716-.939a15.514 15.514 0 0 0 8.227-7.076 30.91 30.91 0 0 0 1.877-3.917.174.174 0 0 0 .026-.075c2.144-6.433-.1-13.41-5.7-16.539a12.675 12.675 0 0 0-9.622-1.077c-.086.015-3.771 1.107-3.868 1.146-3.599 1.06-1.404-2.734-3.488.974z" class="cls-2" data-name="Path 831" transform="translate(-727.272 -213.125)"/>
                                                        </g>
                                                    </g>
                                                </g>
                                            </g>
                                        </g>
                                    </g>
                                </g>
                            </g>
                        </g>
                    </g>
                </g>
            </g>
            <g id="Group_1292" data-name="Group 1292" transform="translate(765.313 257.754)">
                <g id="Group_1255" data-name="Group 1255" transform="translate(2.078)">
                    <g id="Group_1254" data-name="Group 1254">
                        <g id="Group_1253" data-name="Group 1253">
                            <g id="Group_1252" data-name="Group 1252">
                                <g id="Group_1251" data-name="Group 1251">
                                    <g id="Group_1250" data-name="Group 1250">
                                        <g id="Group_1249" data-name="Group 1249">
                                            <g id="Group_1248" data-name="Group 1248">
                                                <g id="Group_1247" data-name="Group 1247">
                                                    <g id="Group_1246" data-name="Group 1246">
                                                        <g id="Group_1245" data-name="Group 1245">
                                                            <g id="Group_1244" data-name="Group 1244">
                                                                <path id="Path_832" d="M733.038 227.1l-3.276-.853 1.911-7.347.872.23-1.683 6.473 2.4.623z" class="cls-3" data-name="Path 832" transform="translate(-729.762 -218.9)"/>
                                                            </g>
                                                        </g>
                                                    </g>
                                                </g>
                                            </g>
                                        </g>
                                    </g>
                                </g>
                            </g>
                        </g>
                    </g>
                </g>
                <g id="Group_1267" data-name="Group 1267" transform="translate(4.504 9.531)">
                    <g id="Group_1266" data-name="Group 1266">
                        <g id="Group_1265" data-name="Group 1265">
                            <g id="Group_1264" data-name="Group 1264">
                                <g id="Group_1263" data-name="Group 1263">
                                    <g id="Group_1262" data-name="Group 1262">
                                        <g id="Group_1261" data-name="Group 1261">
                                            <g id="Group_1260" data-name="Group 1260">
                                                <g id="Group_1259" data-name="Group 1259">
                                                    <g id="Group_1258" data-name="Group 1258">
                                                        <g id="Group_1257" data-name="Group 1257">
                                                            <g id="Group_1256" data-name="Group 1256">
                                                                <path id="Path_833" d="M732.951 226.626a3.578 3.578 0 0 1-1.725-1.08l.711-.641a2.173 2.173 0 0 0 2.13.8 1.286 1.286 0 0 0 .916-1.054l.944.171a2.237 2.237 0 0 1-1.6 1.8 2.652 2.652 0 0 1-1.376.004z" class="cls-3" data-name="Path 833" transform="translate(-731.226 -224.653)"/>
                                                            </g>
                                                        </g>
                                                    </g>
                                                </g>
                                            </g>
                                        </g>
                                    </g>
                                </g>
                            </g>
                        </g>
                    </g>
                </g>
                <g id="Group_1279" data-name="Group 1279" transform="translate(0 1.835)">
                    <g id="Group_1278" data-name="Group 1278">
                        <g id="Group_1277" data-name="Group 1277">
                            <g id="Group_1276" data-name="Group 1276">
                                <g id="Group_1275" data-name="Group 1275">
                                    <g id="Group_1274" data-name="Group 1274">
                                        <g id="Group_1273" data-name="Group 1273">
                                            <g id="Group_1272" data-name="Group 1272">
                                                <g id="Group_1271" data-name="Group 1271">
                                                    <g id="Group_1270" data-name="Group 1270">
                                                        <g id="Group_1269" data-name="Group 1269">
                                                            <g id="Group_1268" data-name="Group 1268">
                                                                <path id="Path_834" d="M729.108 221.577h-.005a.8.8 0 0 1-.57-.974.8.8 0 0 1 .974-.563.8.8 0 0 1 .572.968.8.8 0 0 1-.971.569z" class="cls-3" data-name="Path 834" transform="translate(-728.507 -220.008)"/>
                                                            </g>
                                                        </g>
                                                    </g>
                                                </g>
                                            </g>
                                        </g>
                                    </g>
                                </g>
                            </g>
                        </g>
                    </g>
                </g>
                <g id="Group_1291" data-name="Group 1291" transform="translate(9.17 3.396)">
                    <g id="Group_1290" data-name="Group 1290">
                        <g id="Group_1289" data-name="Group 1289">
                            <g id="Group_1288" data-name="Group 1288">
                                <g id="Group_1287" data-name="Group 1287">
                                    <g id="Group_1286" data-name="Group 1286">
                                        <g id="Group_1285" data-name="Group 1285">
                                            <g id="Group_1284" data-name="Group 1284">
                                                <g id="Group_1283" data-name="Group 1283">
                                                    <g id="Group_1282" data-name="Group 1282">
                                                        <g id="Group_1281" data-name="Group 1281">
                                                            <g id="Group_1280" data-name="Group 1280">
                                                                <path id="Path_835" d="M734.64 222.519a.8.8 0 0 1-.57-.973.794.794 0 0 1 .973-.568.793.793 0 0 1 .573.969.8.8 0 0 1-.976.572z" class="cls-3" data-name="Path 835" transform="translate(-734.043 -220.95)"/>
                                                            </g>
                                                        </g>
                                                    </g>
                                                </g>
                                            </g>
                                        </g>
                                    </g>
                                </g>
                            </g>
                        </g>
                    </g>
                </g>
            </g>
            <g id="Group_1305" data-name="Group 1305" transform="translate(772.462 246.298)">
                <g id="Group_1304" data-name="Group 1304">
                    <g id="Group_1303" data-name="Group 1303">
                        <g id="Group_1302" data-name="Group 1302">
                            <g id="Group_1301" data-name="Group 1301">
                                <g id="Group_1300" data-name="Group 1300">
                                    <g id="Group_1299" data-name="Group 1299">
                                        <g id="Group_1298" data-name="Group 1298">
                                            <g id="Group_1297" data-name="Group 1297">
                                                <g id="Group_1296" data-name="Group 1296">
                                                    <g id="Group_1295" data-name="Group 1295">
                                                        <g id="Group_1294" data-name="Group 1294">
                                                            <g id="Group_1293" data-name="Group 1293">
                                                                <path id="Path_836" d="M732.845 213.87c.512-3.608 8.625-1.047 11.054-.365 3.259.913 6.748 1.972 8.817 4.657 3.526 4.566 4.119 11.077-.031 19.7-.471-.293-3.28-6.64-3.174-7.4-.719 5.065-5.916 1.566-7.558-.484-3.418-4.266-8.751-9.816-7.952-15.746-.432-.07-.749.159-1.173.146a2.933 2.933 0 0 1 .017-.508z" class="cls-5" data-name="Path 836" transform="translate(-732.823 -211.986)"/>
                                                            </g>
                                                        </g>
                                                    </g>
                                                </g>
                                            </g>
                                        </g>
                                    </g>
                                </g>
                            </g>
                        </g>
                    </g>
                </g>
            </g>
            <g id="Group_1317" data-name="Group 1317" transform="translate(782.045 263.297)">
                <g id="Group_1316" data-name="Group 1316">
                    <g id="Group_1315" data-name="Group 1315">
                        <g id="Group_1314" data-name="Group 1314">
                            <g id="Group_1313" data-name="Group 1313">
                                <g id="Group_1312" data-name="Group 1312">
                                    <g id="Group_1311" data-name="Group 1311">
                                        <g id="Group_1310" data-name="Group 1310">
                                            <g id="Group_1309" data-name="Group 1309">
                                                <g id="Group_1308" data-name="Group 1308">
                                                    <g id="Group_1307" data-name="Group 1307">
                                                        <g id="Group_1306" data-name="Group 1306">
                                                            <path id="Path_837" d="M748.483 228.52a5.019 5.019 0 1 1-3.6-6.112 5.011 5.011 0 0 1 3.6 6.112z" class="cls-2" data-name="Path 837" transform="translate(-738.607 -222.246)"/>
                                                        </g>
                                                    </g>
                                                </g>
                                            </g>
                                        </g>
                                    </g>
                                </g>
                            </g>
                        </g>
                    </g>
                </g>
            </g>
            <g id="Group_1329" data-name="Group 1329" transform="translate(790.794 242.277)">
                <g id="Group_1328" data-name="Group 1328">
                    <g id="Group_1327" data-name="Group 1327">
                        <g id="Group_1326" data-name="Group 1326">
                            <g id="Group_1325" data-name="Group 1325">
                                <g id="Group_1324" data-name="Group 1324">
                                    <g id="Group_1323" data-name="Group 1323">
                                        <g id="Group_1322" data-name="Group 1322">
                                            <g id="Group_1321" data-name="Group 1321">
                                                <g id="Group_1320" data-name="Group 1320">
                                                    <g id="Group_1319" data-name="Group 1319">
                                                        <g id="Group_1318" data-name="Group 1318">
                                                            <path id="Path_838" d="M749.871 223.564c6.184 1.927 12.677-2.45 8.406-9.8a8.653 8.653 0 0 0-7.681-4.2 6.563 6.563 0 0 0-4.117 1.557c-3.514 3.158-3.57 8.234.543 11.059a10.527 10.527 0 0 0 2.849 1.384z" class="cls-5" data-name="Path 838" transform="translate(-743.888 -209.559)"/>
                                                        </g>
                                                    </g>
                                                </g>
                                            </g>
                                        </g>
                                    </g>
                                </g>
                            </g>
                        </g>
                    </g>
                </g>
            </g>
            <g id="Group_1334" data-name="Group 1334" transform="translate(765.493 245.88)">
                <g id="Group_1333" data-name="Group 1333">
                    <g id="Group_1332" data-name="Group 1332">
                        <g id="Group_1331" data-name="Group 1331">
                            <g id="Group_1330" data-name="Group 1330">
                                <path id="Path_839" d="M739.2 214.594c-2.865 4.357-7.7 5.691-10.575 7.606-.179-5.895 3.174-10.949 9.042-10.429z" class="cls-5" data-name="Path 839" transform="translate(-728.616 -211.734)"/>
                            </g>
                        </g>
                    </g>
                </g>
            </g>
            <path id="Path_840" d="M846.17 164.844c-.6-1.69-.286-1.178-.6-1.69a3.33 3.33 0 0 0-.326-.461.261.261 0 0 0-.432.116c-.1.512-.2 1.012-.3 1.511-.613 2.966-1.185 5.769-1.912 8.154a.35.35 0 0 1-.181.224.308.308 0 0 1-.3.03.389.389 0 0 1-.272-.482c.712-2.341 1.282-5.136 1.879-8.086.114-.568.242-1.123.359-1.69a.9.9 0 0 0-.456-.984s0-.02-.018-.02a.91.91 0 0 0-1.339.6c-.1.489-.2.989-.312 1.483a45.187 45.187 0 0 1-2.238 8.328.454.454 0 0 1-.171.186.4.4 0 0 1-.354.013.385.385 0 0 1-.189-.527 46.222 46.222 0 0 0 2.182-8.171c.142-.668.285-1.342.414-1.98a.9.9 0 0 0-.63-1.067.91.91 0 0 0-1.166.668c-.757 3.549-1.61 7.1-2.556 10.58a.337.337 0 0 1-.2.239.4.4 0 0 1-.287.031.4.4 0 0 1-.285-.484c.971-3.55 1.839-7.187 2.626-10.805a.425.425 0 0 0-.487-.49 2.07 2.07 0 0 0-.754.321c-1.282.883-1.8 3.931-2.225 5.315-.726 2.4-2 5.724-3.463 9.4a4.713 4.713 0 0 1 3.207 1.541 8.348 8.348 0 0 1 2 5.885l-.669-.051a7.779 7.779 0 0 0-1.815-5.381 4.022 4.022 0 0 0-2.977-1.352c-.055.144-.109.283-.169.429 0-.615-3.494-6.1-4.22-5.59a.922.922 0 0 0-.3.855 2.976 2.976 0 0 0 .373.888 19.166 19.166 0 0 1 2.295 8.038c.755 12.747-6.057 26.216-11.332 38.907a111.533 111.533 0 0 0-4.22 11.571 63.347 63.347 0 0 1-22.932 33.186l-37.094 27.782c-8.353 6.258-10.876 17.752-5.431 24.887l.24.32c4.722 6.213 13.87 6.952 21.259 1.69 20.524-14.611 49.087-40.312 55.065-51.591a128.509 128.509 0 0 0 11.378-30.684c.949-3.593 1.865-8.04 2.661-12.787 1.64-9.839 2.765-20.929 2.7-28.254-.011-1.527.043-3.564-.127-5.52a649.66 649.66 0 0 1 2.6-13.368c1.157-5.545 1.755-10.932 1.501-11.663z" class="cls-2" data-name="Path 840" transform="translate(48.301 .213)"/>
            <g id="Group_1337" data-name="Group 1337" transform="translate(792.885 216.643)">
                <g id="Group_1336" data-name="Group 1336">
                    <g id="Group_1335" data-name="Group 1335">
                        <path id="Path_841" d="M841.047 200.269c-6.248-5.939-15.5-7.85-22.5-4.635l-.509.229-.217.52a114.052 114.052 0 0 0-4.271 11.728 62.284 62.284 0 0 1-22.421 32.437l-37.093 27.78a22.119 22.119 0 0 0-8.7 14.473 16.525 16.525 0 0 0 2.994 12.425l.24.31a14.742 14.742 0 0 0 11.968 5.774 19.449 19.449 0 0 0 11.244-3.784c20.721-14.745 49.48-40.706 55.5-52.078a129.349 129.349 0 0 0 11.491-30.991c.93-3.5 1.862-7.966 2.7-12.914l.121-.749z" class="cls-4" data-name="Path 841" transform="translate(-745.15 -194.086)"/>
                    </g>
                </g>
            </g>
        </g>
    </g>
</svg>
