<svg xmlns="http://www.w3.org/2000/svg" width="45" height="45" viewBox="0 0 45 45">
    <defs>
        <style>
            .cls-1{fill:#d46659}.cls-2{fill:#fff}
        </style>
    </defs>
    <g id="Group_2890" data-name="Group 2890" transform="translate(-60 -.362)">
        <circle id="Oval" cx="22.5" cy="22.5" r="22.5" class="cls-1" transform="translate(60 .362)"/>
        <path id="Instagram" d="M14.369 20.465H6.1a6.1 6.1 0 0 1-6.1-6.1V6.1A6.1 6.1 0 0 1 6.1 0h8.272a6.1 6.1 0 0 1 6.1 6.1v8.272a6.1 6.1 0 0 1-6.103 6.093zM6.1 2.059A4.043 4.043 0 0 0 2.059 6.1v8.272A4.042 4.042 0 0 0 6.1 18.406h8.272a4.042 4.042 0 0 0 4.037-4.037V6.1a4.042 4.042 0 0 0-4.037-4.038zm4.136 13.467a5.293 5.293 0 1 1 5.293-5.293 5.3 5.3 0 0 1-5.296 5.292zm0-8.527a3.234 3.234 0 1 0 3.234 3.234A3.238 3.238 0 0 0 10.233 7zm5.3-.751A1.268 1.268 0 1 1 16.8 4.98a1.27 1.27 0 0 1-1.265 1.268z" class="cls-2" transform="translate(72.267 12.63)"/>
    </g>
</svg>
