<svg xmlns="http://www.w3.org/2000/svg" width="45" height="45" viewBox="0 0 45 45">
    <defs>
        <style>
            .cls-1{fill:#4f71b6}.cls-2{fill:#fff}
        </style>
    </defs>
    <g id="Group_2891" data-name="Group 2891" transform="translate(0 -.241)">
        <ellipse id="Oval" cx="22.5" cy="22.5" class="cls-1" rx="22.5" ry="22.5" transform="translate(0 .241)"/>
        <path id="Linkedin" d="M13.365 16.853v-5.472c0-1.308-.02-2.987-1.813-2.987-1.819 0-2.092 1.425-2.092 2.89v5.57H5.971V5.6h3.34v1.538h.046a3.669 3.669 0 0 1 3.307-1.815c3.535 0 4.191 2.329 4.191 5.362v6.169zm-9.6 0H.273V5.6h3.5v11.253zM5.964 5.6h.007zM0 2.03a2.027 2.027 0 1 1 2.027 2.03A2.031 2.031 0 0 1 0 2.03z" class="cls-2" transform="translate(14.073 13.752)"/>
    </g>
</svg>
