<svg xmlns="http://www.w3.org/2000/svg" width="142.478" height="142.478" viewBox="0 0 142.478 142.478">
    <defs>
        <style>
            .cls-1,.cls-2{fill:#8abbd5;stroke:#8abbd5}.cls-1{stroke-miterlimit:10;stroke-width:2px}
        </style>
    </defs>
    <g id="Group_2710" data-name="Group 2710" transform="translate(.5 .5)">
        <path id="Path_1088" d="M185.94 447.3c9.294 0 16.856-9.039 16.856-20.151 0-10.571-6.932-17.955-16.856-17.955s-16.854 7.384-16.854 17.955c-.002 11.116 7.561 20.151 16.854 20.151zm0-32.968c7.01 0 11.717 5.149 11.717 12.817 0 8.278-5.255 15.013-11.717 15.013s-11.717-6.735-11.717-15.013c0-7.663 4.708-12.813 11.717-12.813zm30.385 58.7c-.044-2.723-.06-3.417-.092-3.732-1.379-12.633-12-19.591-29.891-19.591-.114 0-.226.005-.341.008h-.125c-.112 0-.225-.008-.342-.008-17.9 0-28.511 6.958-29.887 19.59-.033.3-.049.871-.09 3.408l-.023 1.45c0 .06.012.116.014.175.007.092.011.182.025.274s.036.162.056.244.04.159.068.235a1.8 1.8 0 0 0 .1.229 2.412 2.412 0 0 0 .114.222 2.444 2.444 0 0 0 .144.2c.051.066.1.134.156.2a2.5 2.5 0 0 0 .2.185c.045.04.082.088.13.123 8.27 6.346 18.158 9.562 29.4 9.562a48.233 48.233 0 0 0 29.3-9.491l.008-.007c.023-.019.048-.034.073-.052.048-.037.086-.083.13-.119.071-.064.144-.123.208-.193s.1-.129.152-.193.1-.133.145-.2a2.472 2.472 0 0 0 .116-.223c.037-.074.073-.146.1-.226s.048-.159.07-.24a2.342 2.342 0 0 0 .055-.24 2.4 2.4 0 0 0 .025-.279c0-.059.016-.116.015-.177zm-30.385 7.636a42.247 42.247 0 0 1-25.242-7.747v-.131c.016-1.073.042-2.693.057-2.934 1.351-12.4 14.223-15.009 24.78-15.009l.349.011a.8.8 0 0 0 .115 0l.345-.011c10.557 0 23.429 2.6 24.776 14.951.022.3.048 1.978.066 3.111a43.291 43.291 0 0 1-25.246 7.764zm-23.931-35.939a2.569 2.569 0 0 0-2.568-2.569h-11.818v-11.81a2.569 2.569 0 0 0-5.138 0v11.816h-11.816a2.569 2.569 0 0 0 0 5.138h11.816v11.817a2.569 2.569 0 0 0 5.138 0V447.3h11.817a2.57 2.57 0 0 0 2.568-2.566z" class="cls-1" data-name="Path 1088" transform="translate(-106.029 -376.766)"/>
        <g id="Group_2709" data-name="Group 2709">
            <path id="Path_1089" d="M182.718 526.988a70.739 70.739 0 1 1 70.74-70.738 70.819 70.819 0 0 1-70.74 70.738zm0-133.263a62.524 62.524 0 1 0 62.525 62.525 62.6 62.6 0 0 0-62.525-62.525z" class="cls-2" data-name="Path 1089" transform="translate(-111.98 -385.51)"/>
        </g>
    </g>
</svg>
