<svg xmlns="http://www.w3.org/2000/svg" width="45" height="45" viewBox="0 0 45 45">
    <defs>
        <style>
            .cls-1{fill:#f3dea1}.cls-2{fill:#fff}
        </style>
    </defs>
    <g id="Group_2888" data-name="Group 2888" transform="translate(-181)">
        <ellipse id="Oval" cx="22.5" cy="22.5" class="cls-1" rx="22.5" ry="22.5" transform="translate(181)"/>
        <g id="Snapchat" transform="translate(192.678 12.282)">
            <path id="Shape" d="M20.847 15.493c-2.7-.478-3.907-3.275-4.049-3.607v-.036a.878.878 0 0 1-.107-.7c.142-.331.746-.552 1.136-.662a2.4 2.4 0 0 0 .284-.11c.746-.331 1.136-.736 1.136-1.214a1 1 0 0 0-.71-.883 1.1 1.1 0 0 0-.5-.11 1.349 1.349 0 0 0-.462.11 2.608 2.608 0 0 1-.852.258.437.437 0 0 1-.213-.037 1.174 1.174 0 0 0 .036-.368v-.075c.071-1.509.213-3.386-.284-4.49A5.778 5.778 0 0 0 10.9 0h-.426A5.709 5.709 0 0 0 5.15 3.57a10.819 10.819 0 0 0-.284 4.49 1.856 1.856 0 0 1 .034.44c-.071 0-.178.037-.284.037a1.951 1.951 0 0 1-.923-.258 1.231 1.231 0 0 0-1.563.773c-.071.368.071.883 1.136 1.325a1.612 1.612 0 0 0 .32.11c.355.11.959.331 1.1.662a.891.891 0 0 1-.107.7c-.071.11-1.314 3.091-4.12 3.57a.628.628 0 0 0-.459.626.546.546 0 0 0 .071.258c.213.589 1.136.957 2.806 1.251.036.11.071.331.107.442.036.147.071.331.107.515a.613.613 0 0 0 .639.478 2.693 2.693 0 0 0 .5-.074 4.227 4.227 0 0 1 1.1-.147 3.118 3.118 0 0 1 .817.11 3.519 3.519 0 0 1 1.456.773 4.112 4.112 0 0 0 2.806.957h.249a5.576 5.576 0 0 0 3.2-.957 4.012 4.012 0 0 1 1.456-.773 5.612 5.612 0 0 1 .781-.074 4.859 4.859 0 0 1 1.1.11 3.573 3.573 0 0 0 .533.074.613.613 0 0 0 .6-.478c.036-.184.071-.331.107-.515.035-.074.071-.294.107-.4 1.669-.258 2.486-.662 2.735-1.214a.7.7 0 0 0 .071-.258.628.628 0 0 0-.501-.63z" class="cls-2"/>
            <path id="Path" d="M17.473 16.119c-.426.037-.5.478-.6.957-.035.11-.071.258-.107.4a1.576 1.576 0 0 1-.355-.037 5.8 5.8 0 0 0-1.243-.147 7.832 7.832 0 0 0-.888.074 4.223 4.223 0 0 0-1.74.92 4.344 4.344 0 0 1-2.735.846h-.18a3.632 3.632 0 0 1-2.415-.842 4.015 4.015 0 0 0-1.74-.92 7.224 7.224 0 0 0-.888-.074 5.022 5.022 0 0 0-1.243.147 1.516 1.516 0 0 1-.355.074l-.107-.442c-.107-.478-.178-.92-.6-.994A4.678 4.678 0 0 1 0 15.383c2.912-.626 4.262-3.57 4.439-3.975a1.67 1.67 0 0 0 .107-1.288 2.286 2.286 0 0 0-1.563-1.067.5.5 0 0 1-.249-.074c-.6-.258-.71-.478-.71-.515 0-.11.249-.258.462-.258h.107a2.713 2.713 0 0 0 1.207.332 1.217 1.217 0 0 0 .888-.331.34.34 0 0 0 .107-.258c0-.221-.036-.442-.036-.662a10.423 10.423 0 0 1 .213-4.159A5.012 5.012 0 0 1 9.66 0h.391a5.108 5.108 0 0 1 4.723 3.055 11.915 11.915 0 0 1 .213 4.159v.074c0 .221-.036.4-.036.589a.427.427 0 0 0 .107.294 1.269 1.269 0 0 0 .852.331 3.85 3.85 0 0 0 1.136-.331.506.506 0 0 1 .391.037c.178.074.249.184.249.221 0 .074-.142.294-.71.515a2.4 2.4 0 0 1-.284.11 2.3 2.3 0 0 0-1.527 1.067 1.527 1.527 0 0 0 .107 1.288c.142.368 1.456 3.386 4.4 4.011a4.874 4.874 0 0 1-2.199.699z" class="cls-2" transform="translate(.852 .736)"/>
        </g>
    </g>
</svg>
