<svg xmlns="http://www.w3.org/2000/svg" width="45" height="45" viewBox="0 0 45 45">
    <defs>
        <style>
            .cls-1{fill:#8abbd5}.cls-2{fill:#fff}
        </style>
    </defs>
    <g id="Group_2889" data-name="Group 2889" transform="translate(-121 -.362)">
        <circle id="Oval" cx="22.5" cy="22.5" r="22.5" class="cls-1" transform="translate(121 .362)"/>
        <path id="Twitter" d="M19.261 1.852a7.927 7.927 0 0 1-2.27.623A3.963 3.963 0 0 0 18.729.29a7.9 7.9 0 0 1-2.51.958 3.954 3.954 0 0 0-6.836 2.7 4 4 0 0 0 .1.9A11.217 11.217 0 0 1 1.342.723 3.955 3.955 0 0 0 2.564 6a3.919 3.919 0 0 1-1.789-.5v.05a3.952 3.952 0 0 0 3.169 3.877 3.945 3.945 0 0 1-1.044.139 3.887 3.887 0 0 1-.743-.072 3.958 3.958 0 0 0 3.692 2.744 7.939 7.939 0 0 1-4.909 1.69 7.965 7.965 0 0 1-.94-.054 11.183 11.183 0 0 0 6.058 1.776A11.165 11.165 0 0 0 17.3 4.409c0-.172 0-.341-.011-.511a8.031 8.031 0 0 0 1.972-2.045z" class="cls-2" transform="translate(133.869 15.037)"/>
    </g>
</svg>
